# xmcd
#
# Track frame offsets:
#  150
#  17452
#  32232
#  50772
#  68962
#  89265
#  102690
#  117695
#  131682
#  147877
#  166367
#  181100
#
# Disc length: 2573 seconds
#
# Revision: 0
# Processed by: cddbd v1.5.1PL2 Copyright (c) Steve Scherf et al.
# Submitted via: Collectorz.com_Music_Collector 6.9
#
DISCID=ad0a0b0c
DTITLE=Various Artist - Ultimate Country Hits Vol. III - Disc 1
DYEAR=1900
DGENRE=General Country
TTITLE0=Dan Seals - Love On Arrival
TTITLE1=Milsap, Ronnie - (There's) No Gettin' Over Me
TTITLE2=Newton, Juice - The Sweetest Thing (I've Ever Known)
TTITLE3=Trace Adkins - This Ain't No Thinkin' Thing
TTITLE4=Steve Wariner - Two Teardrops
TTITLE5=McDaniel, Mel - Baby's Got Her Blue Jeans On
TTITLE6=Billy Dean - Somewhere In My Broken Heart
TTITLE7=Mandrell, Barbara - If Loving You Is Wrong I Don't Want To Be Right
TTITLE8=Patty Loveless - Blame It On Your Heart
TTITLE9=Ducas, George - Lipstick Promises
TTITLE10=Reed, Jerry - She Got The Goldmine (I Got The Shaft)
TTITLE11=Crystal Gayle - Don't It Make My Brown Eyes Blue
EXTD=
EXTT0=
EXTT1=
EXTT2=
EXTT3=
EXTT4=
EXTT5=
EXTT6=
EXTT7=
EXTT8=
EXTT9=
EXTT10=
EXTT11=
PLAYORDER=
